<svg xmlns="http://www.w3.org/2000/svg" x="0px" y="0px" viewBox="0 0 187.1 51.6"><polygon display="none" fill-rule="evenodd" clip-rule="evenodd" fill="#FFFFFF" points="-2.8,-70.6 189.9,-70.6 189.9,122.2 
    -2.8,122.2 -2.8,-70.6   "></polygon><path fill-rule="evenodd" clip-rule="evenodd" d="M47.9,0.9L4.7,47.6c-0.6,0.6-0.9,0.9-1.8,1.5l-2,1.1C-0.7,51,0,51.1,1.7,51.1
    h16.9c2.5,0,2.7-0.3-0.2-0.8l-6-1.1c-1.7-0.3-2.8-1.1-1.4-2.8l11.8-14.6c2.3-2.7,2.7-2.4,6-2.4c5.1,0.2,6.1,0.1,11.1,0.7
    c2,0.3,2.7,0.1,2.5,2.5l-1,13.8c-0.2,1.7-0.5,1.8-1.6,2.2l-6.2,1.7c-1.8,0.7-2.3,0.9-0.3,0.8h19.7c2.5,0,2.4-0.3,0.8-0.8l-4.5-1.7
    c-1.3-0.6-1.8-1.4-1.7-2.9L49.3,1C49.3-0.8,48.6,0.2,47.9,0.9L47.9,0.9z"></path><path fill-rule="evenodd" clip-rule="evenodd" fill="#FFFFFF" d="M43.3,12.1c0.2-1.5-0.2-2.9-2.4-0.3L28.1,25.4
    c-1.4,1.6-0.3,2.3,0.8,2.3l11.4,0.5c2.3,0,2.4-0.9,2.4-2L43.3,12.1L43.3,12.1z"></path><path fill-rule="evenodd" clip-rule="evenodd" d="M74.7,6.4l-9.6,39.2c-0.5,1.9-0.8,2.9-1.8,3.2l-5.1,1.5c-0.6,0.2-3.6,0.9,0.1,0.9
    h17.6c3.9,0,2.2-0.6,0.6-1.1l-3.8-1.1c-1.1-0.4-1.8-0.8-1.3-3l9.6-40.1c0.6-2.1,0.7-2.5,2.2-3l3.5-1c1.1-0.4,1.1-0.5-0.8-0.5H70.3
    c-3.1,0-2.4,0.3-0.3,0.8c0,0,1.5,0.4,3.1,0.8C73.2,2.8,75.5,3.3,74.7,6.4L74.7,6.4z"></path><path fill-rule="evenodd" clip-rule="evenodd" d="M132.7,3.3c-12.9-2.6-27.8,1.5-34.6,17.5c-8.9,20.8,8.6,32,22.9,28.7
    c1.5-0.4,2.2-0.2,2.8-1.9l1.8-7.7c0.3-0.9,0.7-2.1-1-2.5l-7.6-2c-1.7-0.5-3.3-0.8-0.8-0.8h15.7c1.8,0,1.7,0.4,1.4,1.7l-2.9,9.2
    c-0.5,1.8-0.6,2.1-2,2.6c-23,8.8-38.3,0.6-39.9-15c-1.4-13.7,15.4-38.4,48.9-31.2c1.8,0.4,2,0.8,1.5,2.5l-3.8,11.6
    c-0.9,2.7-1,2-0.9-0.8l0.5-8.9C134.8,3.8,133.7,3.5,132.7,3.3L132.7,3.3z"></path><path fill-rule="evenodd" clip-rule="evenodd" d="M180.1,0.9l-43.2,46.7c-0.6,0.6-0.9,0.9-1.8,1.5l-2,1.1c-1.5,0.8-0.9,0.9,0.8,0.9
    h16.9c2.5,0,2.7-0.3-0.2-0.8l-6-1.1c-1.7-0.3-2.8-1.1-1.4-2.8l11.8-14.6c2.3-2.7,2.7-2.4,6-2.4c5.1,0.2,6.1,0.1,11.1,0.7
    c2,0.3,2.7,0.1,2.5,2.5l-1,13.8c-0.2,1.7-0.5,1.8-1.6,2.2l-6.2,1.7c-1.8,0.7-2.3,0.9-0.3,0.8h19.7c2.5,0,2.4-0.3,0.8-0.8l-4.5-1.7
    c-1.3-0.6-1.8-1.4-1.7-2.9L181.6,1C181.6-0.8,180.8,0.2,180.1,0.9L180.1,0.9z"></path><path fill-rule="evenodd" clip-rule="evenodd" fill="#FFFFFF" d="M175.5,12.1c0.2-1.5-0.2-2.9-2.4-0.3l-12.8,13.7
    c-1.4,1.6-0.3,2.3,0.8,2.3l11.4,0.5c2.3,0,2.4-0.9,2.4-2L175.5,12.1L175.5,12.1z"></path></svg>
